<mxfile host="app.diagrams.net" modified="2022-04-14T07:36:07.181Z" agent="5.0 (Macintosh; Intel Mac OS X 10_15_7) AppleWebKit/537.36 (KHTML, like Gecko) Chrome/100.0.4896.75 Safari/537.36" etag="5CaNavNpscBXGj0F3amE" version="17.4.4" type="github">
  <diagram id="aU5uq3DH8CSJnh8zKPkR" name="Page-1">
    <mxGraphModel dx="946" dy="646" grid="1" gridSize="10" guides="1" tooltips="1" connect="1" arrows="1" fold="1" page="1" pageScale="1" pageWidth="827" pageHeight="1169" math="0" shadow="0">
      <root>
        <mxCell id="0" />
        <mxCell id="1" parent="0" />
        <mxCell id="RHq5kqpb11F1fpoZCMC8-1" value="video-publish" style="rounded=0;whiteSpace=wrap;html=1;" vertex="1" parent="1">
          <mxGeometry x="670" y="950" width="120" height="60" as="geometry" />
        </mxCell>
        <mxCell id="RHq5kqpb11F1fpoZCMC8-9" style="edgeStyle=orthogonalEdgeStyle;rounded=0;orthogonalLoop=1;jettySize=auto;html=1;exitX=0.5;exitY=0;exitDx=0;exitDy=0;entryX=0.5;entryY=1;entryDx=0;entryDy=0;" edge="1" parent="1" source="RHq5kqpb11F1fpoZCMC8-2" target="RHq5kqpb11F1fpoZCMC8-7">
          <mxGeometry relative="1" as="geometry" />
        </mxCell>
        <mxCell id="RHq5kqpb11F1fpoZCMC8-2" value="video-publish-web" style="rounded=0;whiteSpace=wrap;html=1;" vertex="1" parent="1">
          <mxGeometry x="354" y="730" width="120" height="60" as="geometry" />
        </mxCell>
        <mxCell id="RHq5kqpb11F1fpoZCMC8-24" style="edgeStyle=orthogonalEdgeStyle;rounded=0;orthogonalLoop=1;jettySize=auto;html=1;exitX=0.5;exitY=0;exitDx=0;exitDy=0;entryX=0.5;entryY=1;entryDx=0;entryDy=0;" edge="1" parent="1" source="RHq5kqpb11F1fpoZCMC8-3" target="RHq5kqpb11F1fpoZCMC8-4">
          <mxGeometry relative="1" as="geometry" />
        </mxCell>
        <mxCell id="RHq5kqpb11F1fpoZCMC8-3" value="video-publish-service-core" style="rounded=0;whiteSpace=wrap;html=1;" vertex="1" parent="1">
          <mxGeometry x="354" y="470" width="120" height="60" as="geometry" />
        </mxCell>
        <mxCell id="RHq5kqpb11F1fpoZCMC8-4" value="video-publish-service--core-common" style="rounded=0;whiteSpace=wrap;html=1;" vertex="1" parent="1">
          <mxGeometry x="354" y="280" width="120" height="60" as="geometry" />
        </mxCell>
        <mxCell id="RHq5kqpb11F1fpoZCMC8-5" value="video-publish-config" style="rounded=0;whiteSpace=wrap;html=1;" vertex="1" parent="1">
          <mxGeometry x="100" y="470" width="120" height="60" as="geometry" />
        </mxCell>
        <mxCell id="RHq5kqpb11F1fpoZCMC8-19" style="edgeStyle=orthogonalEdgeStyle;rounded=0;orthogonalLoop=1;jettySize=auto;html=1;exitX=0.5;exitY=0;exitDx=0;exitDy=0;entryX=0.5;entryY=1;entryDx=0;entryDy=0;" edge="1" parent="1" source="RHq5kqpb11F1fpoZCMC8-6" target="RHq5kqpb11F1fpoZCMC8-4">
          <mxGeometry relative="1" as="geometry" />
        </mxCell>
        <mxCell id="RHq5kqpb11F1fpoZCMC8-6" value="video-publish-common" style="rounded=0;whiteSpace=wrap;html=1;" vertex="1" parent="1">
          <mxGeometry x="600" y="480" width="120" height="60" as="geometry" />
        </mxCell>
        <mxCell id="RHq5kqpb11F1fpoZCMC8-14" style="edgeStyle=orthogonalEdgeStyle;rounded=0;orthogonalLoop=1;jettySize=auto;html=1;exitX=0.5;exitY=0;exitDx=0;exitDy=0;entryX=0.5;entryY=1;entryDx=0;entryDy=0;" edge="1" parent="1" source="RHq5kqpb11F1fpoZCMC8-7" target="RHq5kqpb11F1fpoZCMC8-3">
          <mxGeometry relative="1" as="geometry" />
        </mxCell>
        <mxCell id="RHq5kqpb11F1fpoZCMC8-23" style="edgeStyle=orthogonalEdgeStyle;rounded=0;orthogonalLoop=1;jettySize=auto;html=1;exitX=0;exitY=0.5;exitDx=0;exitDy=0;entryX=0.5;entryY=1;entryDx=0;entryDy=0;" edge="1" parent="1" source="RHq5kqpb11F1fpoZCMC8-7" target="RHq5kqpb11F1fpoZCMC8-5">
          <mxGeometry relative="1" as="geometry" />
        </mxCell>
        <mxCell id="RHq5kqpb11F1fpoZCMC8-25" style="edgeStyle=orthogonalEdgeStyle;rounded=0;orthogonalLoop=1;jettySize=auto;html=1;exitX=1;exitY=0.5;exitDx=0;exitDy=0;entryX=0.5;entryY=1;entryDx=0;entryDy=0;" edge="1" parent="1" source="RHq5kqpb11F1fpoZCMC8-7" target="RHq5kqpb11F1fpoZCMC8-6">
          <mxGeometry relative="1" as="geometry" />
        </mxCell>
        <mxCell id="RHq5kqpb11F1fpoZCMC8-7" value="video-publish-service" style="rounded=0;whiteSpace=wrap;html=1;" vertex="1" parent="1">
          <mxGeometry x="354" y="610" width="120" height="60" as="geometry" />
        </mxCell>
      </root>
    </mxGraphModel>
  </diagram>
</mxfile>
